<svg width="64" height="54" viewBox="0 0 64 54" fill="none" xmlns="http://www.w3.org/2000/svg">
<path d="M53.0053 24.1697C51.9758 24.1697 51.1411 23.3351 51.1411 22.3055V4.9062C51.1411 3.87666 51.9758 3.04199 53.0053 3.04199C54.0349 3.04199 54.8695 3.87666 54.8695 4.9062V22.3055C54.8695 23.3351 54.0349 24.1697 53.0053 24.1697Z" fill="#00478D"/>
<path d="M10.6264 24.1697C9.59688 24.1697 8.76221 23.3351 8.76221 22.3055V4.9062C8.76221 3.87666 9.59688 3.04199 10.6264 3.04199C11.656 3.04199 12.4906 3.87666 12.4906 4.9062V22.3055C12.4906 23.3351 11.656 24.1697 10.6264 24.1697Z" fill="#00478D"/>
<path d="M52.0719 51.328H44.2431C43.2136 51.328 42.3789 50.4933 42.3789 49.4637C42.3789 48.4342 43.2136 47.5995 44.2431 47.5995H52.0719C56.317 47.5995 59.9034 44.0992 59.9034 39.956V26.5339C59.9034 25.5044 60.738 24.6697 61.7676 24.6697C62.7971 24.6697 63.6318 25.5044 63.6318 26.5339V39.9559C63.6318 46.1202 58.338 51.328 52.0719 51.328Z" fill="#00478D"/>
<path d="M12.3038 15.6868H5.59263C2.50886 15.6868 0 18.1957 0 21.2795V28.8606C0 31.9444 2.50886 34.4532 5.59263 34.4532H12.3038C13.3333 34.4532 14.168 33.6186 14.168 32.589V17.551C14.168 16.5215 13.3333 15.6868 12.3038 15.6868Z" fill="#0094DF"/>
<path d="M58.0392 15.6868H51.3281C50.2985 15.6868 49.4639 16.5215 49.4639 17.551V32.589C49.4639 33.6186 50.2985 34.4532 51.3281 34.4532H58.0392C61.123 34.4532 63.6319 31.9444 63.6319 28.8606V21.2795C63.6319 18.1957 61.123 15.6868 58.0392 15.6868Z" fill="#0094DF"/>
<path d="M49.0191 6.98458C44.4361 2.48052 38.3267 0 31.8161 0C25.3006 0 19.1891 2.48077 14.6078 6.98545C9.99658 11.5193 7.45703 17.6013 7.45703 24.1108V27.7142C7.45703 34.4987 12.9767 40.0184 19.7612 40.0184H43.8709C50.6555 40.0184 56.1751 34.4987 56.1751 27.7142V24.1108C56.1751 17.6019 53.6338 11.5197 49.0191 6.98458Z" fill="#D1E8FF"/>
<path d="M39.459 12.1795H24.1724C18.0392 12.1795 13.0493 17.1693 13.0493 23.3026C13.0493 29.4359 18.0391 34.4258 24.1724 34.4258H39.459C45.5922 34.4258 50.5821 29.436 50.5821 23.3026C50.5821 17.1693 45.5922 12.1795 39.459 12.1795Z" fill="white"/>
<path fill-rule="evenodd" clip-rule="evenodd" d="M39.4591 15.9079H24.1725C20.1054 15.9079 16.7778 19.2355 16.7778 23.3026C16.7778 27.3697 20.1054 30.6973 24.1725 30.6973H39.4591C43.5262 30.6973 46.8538 27.3698 46.8538 23.3026C46.8538 19.2354 43.5262 15.9079 39.4591 15.9079Z" fill="#00478D"/>
<path d="M24.5874 25.8503C23.5578 25.8503 22.7231 25.0156 22.7231 23.9861V22.619C22.7231 21.5894 23.5578 20.7548 24.5874 20.7548C25.6169 20.7548 26.4516 21.5894 26.4516 22.619V23.9861C26.4516 25.0156 25.617 25.8503 24.5874 25.8503Z" fill="#0094DF"/>
<path d="M39.0444 25.8503C38.0148 25.8503 37.1802 25.0156 37.1802 23.9861V22.619C37.1802 21.5894 38.0148 20.7548 39.0444 20.7548C40.0739 20.7548 40.9086 21.5894 40.9086 22.619V23.9861C40.9086 25.0156 40.0739 25.8503 39.0444 25.8503Z" fill="#0094DF"/>
<path d="M41.5098 44.679H37.4086C34.8387 44.679 32.748 46.7696 32.748 49.3395C32.748 51.9094 34.8387 54 37.4086 54H41.5098C44.0797 54 46.1704 51.9092 46.1704 49.3395C46.1704 46.7697 44.0797 44.679 41.5098 44.679Z" fill="#052746"/>
</svg>
